<svg id="Layer_1" data-name="Layer 1" xmlns="http://www.w3.org/2000/svg" viewBox="0 0 157.77 155.87"><defs><style>.cls-1{fill:#00a9c1;}</style></defs><g id="logo"><g id="icon"><path class="cls-1" d="M222.28,160.35A67.42,67.42,0,0,1,233,162.07a94.65,94.65,0,0,1,17.47,5.24,104.77,104.77,0,0,1,17.59,9.83c4.36,2.9,8.62,5.93,13,8.85,2.54,1.72,2.66,3.13.51,5.36-6.38,6.61-13.27,12.67-20,19l-12.85,12c-1.09,1-1,1.77.26,2.62,6.82,4.59,13.71,9.09,20.45,13.8,4.19,2.93,7.95,6.33,9.39,11.58a10.31,10.31,0,0,1-2.09,9.9c-3.92,4.76-8.52,8.85-12.76,13.3-5.31,5.55-10.71,11-16.06,16.52-1.88,1.94-4.09,2.95-6.79,2.27a8.22,8.22,0,0,1-6.15-5.53c-1.24-3.68,0-6.74,2.3-9.64,4.26-5.42,8.87-10.53,13.3-15.8a22.92,22.92,0,0,0,2.72-4.14,2.8,2.8,0,0,0-1.12-4.12c-5.35-3.23-10.66-6.53-16.16-9.49-1-.53-1.95-1.1-2.9-1.69a2.78,2.78,0,0,0-3.76.39c-4.68,4.29-9.44,8.51-14.14,12.77-5.7,5.15-11.43,10.27-17.06,15.51s-11,11.16-17,16.28c-2.2,1.89-4.73,3-7.68,1.77-3.15-1.31-4-3.86-2.25-6.75,4.27-7,9.23-13.47,14-20.07,5.85-8,11.93-15.86,17.66-24,5.42-7.67,11-15.26,16.06-23.16,3.76-5.83,7.49-11.69,11-17.69,1.77-3,3.66-6,5.51-9,.58-.94.63-1.74-.55-2.19-4.79-1.83-9.6-3.62-14.37-5.49a4.89,4.89,0,0,0-5.57,1c-3.07,2.71-5.57,5.91-8.4,8.82-1.67,1.72-3.34,3.46-5.1,5.1a7,7,0,0,1-9.6.16c-4-3.35-4.61-7.88-1.47-12.07A81.47,81.47,0,0,1,211,164,19.14,19.14,0,0,1,222.28,160.35Z" transform="translate(-170.35 -136.67)"/><path class="cls-1" d="M328.08,202.8a7.05,7.05,0,0,1-2.77,5.92c-4.34,3.81-9.22,6.88-14,10.05-2.9,1.91-5.76,3.87-8.76,5.61a12.36,12.36,0,0,1-14-.36c-3.7-2.42-7.5-4.69-11-7.44-4-3.17-4.19-4.42-.87-8.3,2.7-3.15,5.27-6.46,8.8-8.79,2-1.33,2.85-1.22,4.74.22,2.07,1.6,4.22,3.09,6.36,4.6a4,4,0,0,0,4.79,0c3.19-2,6.13-4.25,9.15-6.43a28.79,28.79,0,0,1,5.93-3.47A8.52,8.52,0,0,1,328.08,202.8Z" transform="translate(-170.35 -136.67)"/><path class="cls-1" d="M282.76,173.25c-10.45.41-19.55-9.59-19.36-19.41a17.92,17.92,0,0,1,18-17.16c9.55.2,18.2,7.55,18.2,19C299.62,165.9,291,173.74,282.76,173.25Z" transform="translate(-170.35 -136.67)"/></g></g></svg>